<?xml version="1.0" encoding="UTF-8" standalone="no"?>
<!-- Created with Inkscape (http://www.inkscape.org/) -->

<svg
   width="9.3597403mm"
   height="9.999321mm"
   viewBox="0 0 35.375398 37.79271"
   version="1.1"
   id="svg1"
   xml:space="preserve"
   xmlns="http://www.w3.org/2000/svg"
   xmlns:svg="http://www.w3.org/2000/svg"><defs
     id="defs1" /><g
     id="layer3"
     transform="translate(-470.9812,-136.99674)"><rect
       style="fill:#0d0d0d;fill-opacity:0;stroke-width:4.6427;stroke-dasharray:none"
       id="rect1"
       width="655.07861"
       height="1093.5173"
       x="137.52937"
       y="0.01104814"
       ry="0" /></g><g
     id="layer1"
     transform="translate(-455.49808,-134.72402)"><g
       id="layer7"
       transform="translate(122.04625,-2.2616791)"><path
         style="fill:#f9f9f9;fill-opacity:1;stroke:none;stroke-width:0.129645;stroke-opacity:1"
         d="m 349.51228,143.66354 c 0.41215,-0.3075 2.5496,-2.38805 2.66587,-2.62728 0.1213,-0.24964 0.72948,-4.05515 1.36614,-4.05054 1.01703,-0.005 0.97472,12.38761 1.84107,12.65755 4.97988,-3.40038 13.09433,-10.98105 13.42234,-10.6939 0.45515,0.55003 -7.15903,8.97126 -10.41263,13.44101 1.73309,0.0106 5.00412,-0.1502 5.19923,0.031 0.25934,0.23289 0.18528,4.85342 0.27792,7.28013 l -1.70636,2.8227 -7.16011,-6.21493 c -0.73897,5.87836 -1.30562,18.47271 -1.72802,18.46913 -0.31646,0.0106 -0.7766,-12.70174 -1.07273,-15.85075 -5.08586,4.51158 -15.10986,13.73782 -15.37262,13.53475 -0.27581,-0.18712 1.16673,-3.32049 2.07603,-5.89145 0,0 -0.0371,-2.43689 -0.12964,-3.08708 -0.47606,-0.46803 -1.49547,-1.36463 -1.87077,-1.80661 -0.0124,-1.42568 -0.02,-2.70404 -0.02,-2.70404 l 4.53145,-4.08691 c 0,0 -6.05993,-1.8446 -6.77315,-2.14825 -0.83659,-0.35617 -1.14629,-1.27177 -1.19446,-1.71515 l 6.83048,-5.06984 c 1.81864,-2.13175 4.91311,-6.45787 5.45594,-6.39525 0.52367,-0.0486 2.51604,2.73707 3.77406,4.1056 z"
         id="path69" /></g></g></svg>
