<svg xmlns="http://www.w3.org/2000/svg" style="display:none">
  <!-- ternimal -->
  <symbol id="terminal" viewBox="0 -960 960 960">
    <path d="M160-160q-33 0-56.5-23.5T80-240v-480q0-33 23.5-56.5T160-800h640q33 0 56.5 23.5T880-720v480q0 33-23.5 56.5T800-160H160Zm0-80h640v-400H160v400Zm140-40-56-56 103-104-104-104 57-56 160 160-160 160Zm180 0v-80h240v80H480Z" fill="#fdfdff"/>
  </symbol>
  <!-- github -->
  <symbol id="github" viewBox="0 0 24 24">
    <path d="M12,2A10,10,0,0,0,8.84,21.5c.5.08.66-.23.66-.5V19.31C6.73,19.91,6.14,18,6.14,18A2.69,2.69,0,0,0,5,16.5c-.91-.62.07-.6.07-.6a2.1,2.1,0,0,1,1.53,1,2.15,2.15,0,0,0,2.91.83,2.16,2.16,0,0,1,.63-1.34C8,16.17,5.62,15.31,5.62,11.5a3.87,3.87,0,0,1,1-2.71,3.58,3.58,0,0,1,.1-2.64s.84-.27,2.75,1a9.63,9.63,0,0,1,5,0c1.91-1.29,2.75-1,2.75-1a3.58,3.58,0,0,1,.1,2.64,3.87,3.87,0,0,1,1,2.71c0,3.82-2.34,4.66-4.57,4.91a2.39,2.39,0,0,1,.69,1.85V21c0,.27.16.59.67.5A10,10,0,0,0,12,2Z" fill="#FDFDFF"/>
  </symbol>

  <!-- discord -->
  <symbol id="discord" viewBox="0 0 24 24">
    <path d="M18.59 5.88997C17.36 5.31997 16.05 4.89997 14.67 4.65997C14.5 4.95997 14.3 5.36997 14.17 5.69997C12.71 5.47997 11.26 5.47997 9.83001 5.69997C9.69001 5.36997 9.49001 4.95997 9.32001 4.65997C7.94001 4.89997 6.63001 5.31997 5.40001 5.88997C2.92001 9.62997 2.25001 13.28 2.58001 16.87C4.23001 18.1 5.82001 18.84 7.39001 19.33C7.78001 18.8 8.12001 18.23 8.42001 17.64C7.85001 17.43 7.31001 17.16 6.80001 16.85C6.94001 16.75 7.07001 16.64 7.20001 16.54C10.33 18 13.72 18 16.81 16.54C16.94 16.65 17.07 16.75 17.21 16.85C16.7 17.16 16.15 17.42 15.59 17.64C15.89 18.23 16.23 18.8 16.62 19.33C18.19 18.84 19.79 18.1 21.43 16.87C21.82 12.7 20.76 9.08997 18.61 5.88997H18.59ZM8.84001 14.67C7.90001 14.67 7.13001 13.8 7.13001 12.73C7.13001 11.66 7.88001 10.79 8.84001 10.79C9.80001 10.79 10.56 11.66 10.55 12.73C10.55 13.79 9.80001 14.67 8.84001 14.67ZM15.15 14.67C14.21 14.67 13.44 13.8 13.44 12.73C13.44 11.66 14.19 10.79 15.15 10.79C16.11 10.79 16.87 11.66 16.86 12.73C16.86 13.79 16.11 14.67 15.15 14.67Z" fill="#FDFDFF"/>
  </symbol>

  <!-- brush -->
  <symbol id="brush" viewBox="0 -960 960 960">
    <path d="M240-120q-45 0-89-22t-71-58q26 0 53-20.5t27-59.5q0-50 35-85t85-35q50 0 85 35t35 85q0 66-47 113t-113 47Zm0-80q33 0 56.5-23.5T320-280q0-17-11.5-28.5T280-320q-17 0-28.5 11.5T240-280q0 23-5.5 42T220-202q5 2 10 2h10Zm230-160L360-470l358-358q11-11 27.5-11.5T774-828l54 54q12 12 12 28t-12 28L470-360Zm-190 80Z" fill="#FDFDFF"/>
  </symbol>

  <!-- mail -->
  <symbol id="mail" viewBox="0 -960 960 960">
    <path d="M160-160q-33 0-56.5-23.5T80-240v-480q0-33 23.5-56.5T160-800h640q33 0 56.5 23.5T880-720v480q0 33-23.5 56.5T800-160H160Zm320-280L160-640v400h640v-400L480-440Zm0-80 320-200H160l320 200ZM160-640v-80 480-400Z" fill="#FDFDFF"/>
  </symbol>

  <!-- person -->
  <symbol id="person" viewBox="0 -960 960 960">
    <path d="M480-480q-66 0-113-47t-47-113q0-66 47-113t113-47q66 0 113 47t47 113q0 66-47 113t-113 47ZM160-160v-112q0-34 17.5-62.5T224-378q62-31 126-46.5T480-440q66 0 130 15.5T736-378q29 15 46.5 43.5T800-272v112H160Zm80-80h480v-32q0-11-5.5-20T700-306q-54-27-109-40.5T480-360q-56 0-111 13.5T260-306q-9 5-14.5 14t-5.5 20v32Zm240-320q33 0 56.5-23.5T560-640q0-33-23.5-56.5T480-720q-33 0-56.5 23.5T400-640q0 33 23.5 56.5T480-560Zm0-80Zm0 400Z" fill="#FDFDFF"/>
  </symbol>

  <!-- status -->
  <symbol id="status" viewBox="0 -960 960 960">
    <path d="M80-600v-120q0-33 23.5-56.5T160-800h640q33 0 56.5 23.5T880-720v120h-80v-120H160v120H80Zm80 440q-33 0-56.5-23.5T80-240v-120h80v120h640v-120h80v120q0 33-23.5 56.5T800-160H160Zm240-120q11 0 21-5.5t15-16.5l124-248 44 88q5 11 15 16.5t21 5.5h240v-80H665l-69-138q-5-11-15-15.5t-21-4.5q-11 0-21 4.5T524-658L400-410l-44-88q-5-11-15-16.5t-21-5.5H80v80h215l69 138q5 11 15 16.5t21 5.5Zm80-200Z" fill="#0A0A0A"/>
  </symbol>

  <!-- setting -->
  <symbol id="setting" viewBox="0 -960 960 960">
    <path d="m370-80-16-128q-13-5-24.5-12T307-235l-119 50L78-375l103-78q-1-7-1-13.5v-27q0-6.5 1-13.5L78-585l110-190 119 50q11-8 23-15t24-12l16-128h220l16 128q13 5 24.5 12t22.5 15l119-50 110 190-103 78q1 7 1 13.5v27q0 6.5-2 13.5l103 78-110 190-118-50q-11 8-23 15t-24 12L590-80H370Zm70-80h79l14-106q31-8 57.5-23.5T639-327l99 41 39-68-86-65q5-14 7-29.5t2-31.5q0-16-2-31.5t-7-29.5l86-65-39-68-99 42q-22-23-48.5-38.5T533-694l-13-106h-79l-14 106q-31 8-57.5 23.5T321-633l-99-41-39 68 86 64q-5 15-7 30t-2 32q0 16 2 31t7 30l-86 65 39 68 99-42q22 23 48.5 38.5T427-266l13 106Zm42-180q58 0 99-41t41-99q0-58-41-99t-99-41q-59 0-99.5 41T342-480q0 58 40.5 99t99.5 41Zm-2-140Z" fill="#0A0A0A"/>
  </symbol>
</svg>

