<?xml version="1.0" encoding="UTF-8" standalone="no"?>
<!-- Created with Inkscape (http://www.inkscape.org/) -->

<svg
   width="61.500004mm"
   height="20.5mm"
   viewBox="0 0 232.44097 77.480317"
   version="1.1"
   id="svg1"
   xml:space="preserve"
   sodipodi:docname="OMNICHROME ORG.svg"
   inkscape:version="1.4.1 (93de688d07, 2025-03-30)"
   inkscape:export-filename="OMNICHROME ORG.png"
   inkscape:export-xdpi="960.41443"
   inkscape:export-ydpi="960.41443"
   xmlns:inkscape="http://www.inkscape.org/namespaces/inkscape"
   xmlns:sodipodi="http://sodipodi.sourceforge.net/DTD/sodipodi-0.dtd"
   xmlns:xlink="http://www.w3.org/1999/xlink"
   xmlns="http://www.w3.org/2000/svg"
   xmlns:svg="http://www.w3.org/2000/svg"><sodipodi:namedview
     id="namedview1"
     pagecolor="#ffffff"
     bordercolor="#111111"
     borderopacity="1"
     inkscape:showpageshadow="0"
     inkscape:pageopacity="0"
     inkscape:pagecheckerboard="1"
     inkscape:deskcolor="#d1d1d1"
     inkscape:document-units="mm"
     showgrid="true"
     inkscape:zoom="2.8284271"
     inkscape:cx="113.49064"
     inkscape:cy="75.837203"
     inkscape:window-width="1299"
     inkscape:window-height="748"
     inkscape:window-x="0"
     inkscape:window-y="0"
     inkscape:window-maximized="1"
     inkscape:current-layer="svg1"><inkscape:grid
       type="axonomgrid"
       id="grid5"
       units="mm"
       originx="0"
       originy="1.889764"
       spacingx="3.7795277"
       spacingy="0.37795277"
       empcolor="#0099e5"
       empopacity="0.30196078"
       color="#0099e5"
       opacity="0.14901961"
       empspacing="5"
       dotted="false"
       gridanglex="45"
       gridanglez="45"
       enabled="true"
       visible="false" /><inkscape:page
       x="0"
       y="2.7528644e-08"
       width="232.44096"
       height="77.480316"
       id="page6"
       margin="0 0 0 0"
       bleed="0" /></sodipodi:namedview><defs
     id="defs1"><pattern
       inkscape:collect="always"
       xlink:href="#Strips1_1"
       preserveAspectRatio="xMidYMid"
       id="pattern20"
       patternTransform="matrix(1.4142133,1.4142133,-1.4142133,1.4142133,36.257088,-0.41057251)"
       x="1"
       y="0" /><pattern
       inkscape:collect="always"
       patternUnits="userSpaceOnUse"
       width="2"
       height="10"
       patternTransform="translate(0,0) scale(2,2)"
       preserveAspectRatio="xMidYMid"
       id="Strips1_1"
       style="fill:#ff0000"
       inkscape:stockid="Stripes 01 (1:1)"
       inkscape:isstock="true"
       inkscape:label="Stripes 01 (1:1)">
      <rect
   style="stroke:none"
   x="0"
   y="-0.5"
   width="1"
   height="11"
   id="rect134" />
    </pattern><linearGradient
       id="swatch15"
       inkscape:swatch="solid"><stop
         style="stop-color:#000000;stop-opacity:1;"
         offset="0"
         id="stop15" /></linearGradient></defs><path
     style="fill:#ff0000;fill-opacity:1;stroke:none;stroke-width:0.221662;stroke-opacity:1"
     d="M 27.463915,12.527789 32.310496,7.6812253 V 4.4501654 L 33.926017,2.834644 v 16.155248 l 3.230496,3.231043 8.078188,-8.077624 h 3.231043 L 59.774411,2.834644 V 9.2967466 L 42.003642,27.067516 h 9.688101 V 43.222764 L 48.465744,46.453807 35.541539,33.529619 V 65.840115 L 33.925453,64.110159 V 44.847399 L 32.310496,43.222764 V 36.760661 L 6.4615384,62.609055 6.4621026,52.91591 9.6931454,49.684867 v -3.23106 L 6.4621026,43.222764 V 39.991721 L 14.527348,31.914097 H 4.846017 L 0,27.067516 11.308667,15.758849 11.308103,12.526644 19.386291,4.4501654 Z"
     id="path69"
     sodipodi:nodetypes="ccccccccccccccccccccccccccccccccc" /><path
     id="text7"
     style="font-style:normal;font-variant:normal;font-weight:bold;font-stretch:normal;font-size:24px;line-height:1;font-family:Cantarell;-inkscape-font-specification:'Cantarell Bold';text-align:start;letter-spacing:0.5px;word-spacing:0px;writing-mode:lr-tb;direction:ltr;text-orientation:upright;text-anchor:start;fill:#ff0000;stroke-width:1.80283"
     d="M 133.74024 26.591797 C 128.46024 26.591797 124.88477 30.072688 124.88477 35.304688 C 124.88477 40.344688 128.26972 43.705079 133.26172 43.705079 C 134.98972 43.705079 136.86135 43.29561 138.27735 42.59961 L 137.58008 40.343751 C 136.52408 40.751751 135.15591 40.992188 134.00391 40.992188 C 130.35591 40.992188 128.07617 38.617048 128.07617 34.873048 C 128.07617 31.321048 130.14053 29.328126 133.64453 29.328126 C 134.96453 29.328126 136.47664 29.593391 137.55664 30.025391 L 138.44532 27.625001 C 137.00532 26.953001 135.37224 26.591797 133.74024 26.591797 z M 67.375001 26.685547 L 67.375001 29.546876 C 69.529398 30.235989 70.876954 32.348976 70.876954 35.25586 C 70.876954 38.139596 69.524082 40.187655 67.375001 40.78711 L 67.375001 43.552735 C 71.46167 42.885292 74.093751 39.639441 74.093751 34.992188 C 74.093751 30.44302 71.454183 27.261936 67.375001 26.685547 z M 184.73243 26.697266 L 184.73243 29.570313 C 186.84419 30.283798 188.16016 32.382107 188.16016 35.25586 C 188.16016 38.106546 186.83898 40.142444 184.73243 40.767579 L 184.73243 43.541016 C 188.77715 42.846769 191.37696 39.611551 191.37696 34.992188 C 191.37696 30.470456 188.76972 27.301294 184.73243 26.697266 z M 64.375001 26.72461 C 60.351856 27.405705 57.773439 30.644238 57.773439 35.25586 C 57.773439 39.813292 60.358921 42.990042 64.375001 43.580079 L 64.375001 40.712891 C 62.285757 40.011883 60.988282 37.915807 60.988282 34.992188 C 60.988282 32.168744 62.290566 30.119798 64.375001 29.500001 L 64.375001 26.72461 z M 181.46094 26.761719 C 177.55075 27.513798 175.05664 30.719857 175.05664 35.25586 C 175.05664 39.738348 177.55752 42.88705 181.46094 43.550782 L 181.46094 40.642579 C 179.48782 39.878655 178.27344 37.822828 178.27344 34.992188 C 178.27344 32.258819 179.49217 30.252233 181.46094 29.564454 L 181.46094 26.761719 z M 77.640626 26.808594 L 77.640626 43.464845 L 80.617189 43.464845 L 80.617189 32.304688 L 85.033205 40.896485 L 87.408205 40.896485 L 91.873049 31.945313 L 91.873049 43.464845 L 94.849611 43.464845 L 94.849611 26.808594 L 91.873049 26.808594 L 86.35547 37.611329 L 80.689455 26.808594 L 77.640626 26.808594 z M 99.261721 26.808594 L 99.261721 43.464845 L 102.18946 43.464845 L 102.18946 31.039063 L 110.37305 43.464845 L 113.82813 43.464845 L 113.82813 26.808594 L 110.87696 26.808594 L 110.85547 39.228516 L 102.78906 26.808594 L 99.261721 26.808594 z M 118.2168 26.808594 L 118.2168 43.464845 L 121.33594 43.464845 L 121.33594 26.808594 L 118.2168 26.808594 z M 141.60938 26.808594 L 141.60938 43.464845 L 144.72852 43.464845 L 144.72852 36.335938 L 152.38477 36.335938 L 152.38477 43.464845 L 155.5293 43.464845 L 155.5293 26.808594 L 152.38477 26.808594 L 152.38477 33.576173 L 144.72852 33.576173 L 144.72852 26.808594 L 141.60938 26.808594 z M 159.91602 26.808594 L 159.91602 43.464845 L 163.01367 43.464845 L 163.01367 37.273438 L 165.70118 37.273438 C 165.74036 37.273438 165.77945 37.271976 165.81836 37.271485 L 165.82032 37.271485 L 169.37305 43.464845 L 173.06836 43.464845 L 168.89649 36.613282 C 170.84209 35.704293 172.01368 33.920347 172.01368 31.679688 C 172.01368 28.607688 169.78138 26.808594 166.10938 26.808594 L 159.91602 26.808594 z M 194.92578 26.808594 L 194.92578 43.464845 L 197.90039 43.464845 L 197.90039 32.300782 L 202.31641 40.896485 L 204.69336 40.896485 L 209.15625 31.945313 L 209.15625 43.464845 L 212.13282 43.464845 L 212.13282 26.808594 L 209.15625 26.808594 L 203.63868 37.611329 L 197.97266 26.808594 L 194.92578 26.808594 z M 216.54493 26.808594 L 216.54493 43.464845 L 227.75196 43.464845 L 227.75196 40.777345 L 219.64063 40.777345 L 219.64063 36.312501 L 227.10547 36.312501 L 227.10547 33.59961 L 219.64063 33.59961 L 219.64063 29.521485 L 227.75196 29.521485 L 227.75196 26.808594 L 216.54493 26.808594 z M 163.01367 29.521485 L 165.70118 29.521485 C 167.66918 29.521485 168.82032 30.504719 168.82032 32.136719 C 168.82032 33.720719 167.86138 34.656251 166.10938 34.656251 L 163.01367 34.656251 L 163.01367 29.521485 z " /><text
     xml:space="preserve"
     style="font-style:normal;font-variant:normal;font-weight:bold;font-stretch:normal;font-size:3.83049px;line-height:1;font-family:Cantarell;-inkscape-font-specification:'Cantarell Bold';text-align:start;letter-spacing:0.478811px;word-spacing:0px;writing-mode:lr-tb;direction:ltr;text-orientation:upright;text-anchor:start;fill:#ff0000;stroke-width:1.72643"
     x="61.211174"
     y="47.051647"
     id="text8"
     transform="scale(0.95762153,1.0442539)"><tspan
       sodipodi:role="line"
       id="tspan8"
       x="61.211174"
       y="47.051647"
       style="stroke-width:1.72643">OBEDIENCE OF GOD'S RULES SHALL NOT BE TOLERATED</tspan></text><rect
     style="fill:url(#pattern20);fill-opacity:1;stroke:none;stroke-width:1.80283;stroke-dasharray:none;stroke-opacity:1"
     id="rect15"
     width="47.424831"
     height="4.6971407"
     x="180.25708"
     y="45.767288" /><path
     id="rect4"
     style="fill:#ff0000;stroke-width:2.11113"
     d="M 54.802735 52.914063 L 54.802735 71.810548 L 160.17383 71.810548 L 160.17383 52.914063 L 54.802735 52.914063 z M 161.41211 52.914063 L 161.41211 71.810548 L 180.47266 71.810548 L 180.47266 52.914063 L 161.41211 52.914063 z " /><text
     xml:space="preserve"
     style="font-weight:bold;font-size:8px;line-height:1;font-family:Cantarell;-inkscape-font-specification:'Cantarell Bold';text-align:start;letter-spacing:0.5px;word-spacing:0px;writing-mode:lr-tb;direction:ltr;text-orientation:upright;text-anchor:start;fill:#000000;stroke-width:1.80283"
     x="56.792416"
     y="61.274464"
     id="text1"><tspan
       sodipodi:role="line"
       x="56.792416"
       y="61.274464"
       id="tspan2"
       style="font-size:8px;fill:#000000">LUNAR RESEARCH AND </tspan><tspan
       sodipodi:role="line"
       x="56.792416"
       y="69.27446"
       style="font-size:8px;fill:#000000"
       id="tspan5">MILITARY FACILITY</tspan></text><circle
     style="fill:#000000;stroke-width:1.80283"
     id="path5"
     cx="178.77167"
     cy="54.803154"
     r="0.75590557" /><circle
     style="fill:#000000;stroke-width:1.80283"
     id="path5-5"
     cx="178.39372"
     cy="69.543312"
     r="0.75590557" /></svg>
